# xmcd
#
# Track frame offsets:
#	150
#	19005
#	40340
#	64117
#	79744
#	95228
#	125890
#	139205
#	154576
#	203650
#	238946
#	253243
#	263686
#
# Disc length: 3682 seconds
#
# Revision: 1
# Processed by: cddbd v1.4PL0 Copyright (c) Steve Scherf et al.
# Submitted via: audiograbber 1.81.02
#
DISCID=bc0e600d
DTITLE=Various Artist - Philadelphie Funk
DYEAR=2002
DGENRE=Funk
TTITLE0=Teddy Pendergrass - Believe in love
TTITLE1=Fatback - Just be my love
TTITLE2=Maze - Can't get over you
TTITLE3=M.F.S.B. - Mysteries of the world
TTITLE4=Harold Melvin and the Blue Notes - Satisfaction guaranted (or take your
TTITLE4=love back)
TTITLE5=O'Jays - I love music
TTITLE6=Three Degrees - When will I see you again
TTITLE7=Goody goody - #1 deejay
TTITLE8=Trammps - Disco Inferno
TTITLE9=Vince Montana Jr - You know how good it is
TTITLE10=Harold Melvin and the Blue Notes - Concentrate on me
TTITLE11=Archie Bell and The Drells - I can't stop dancing
TTITLE12=Wilson Picket - Don't let the grass fool you
EXTD=
EXTT0=
EXTT1=
EXTT2=
EXTT3=
EXTT4=
EXTT5=
EXTT6=
EXTT7=
EXTT8=
EXTT9=
EXTT10=
EXTT11=
EXTT12=
PLAYORDER=
